<svg enable-background="new 0 0 1024 1024" height="1024" image-rendering="optimizeSpeed" viewBox="0 0 1024 1024" width="1024" xmlns="http://www.w3.org/2000/svg"><path d="m969.65 351.3q-8.6-20.85-19.4-40.85c-4.05-7.55-8.35-15.05-12.9-22.4-19.55-31.7-43.4-61.65-71.55-89.8-92.15-92.15-203.45-138.25-333.8-138.25s-241.6 46.1-333.75 138.25-138.25 203.4-138.25 333.75 46.1 241.65 138.25 333.8 203.4 138.2 333.75 138.2 241.65-46.05 333.8-138.2c50.75-50.8 87.55-107.4 110.35-169.75 18.55-50.85 27.85-105.5 27.85-164.05 0-44.9-5.45-87.55-16.4-127.95-1.25-4.55-2.55-9.1-3.9-13.6-4.1-13.3-8.8-26.35-14.05-39.15z" fill-opacity=".098039"/><path d="m958.55 354.65c-.3-.75-.6-1.65-.9-2.55-6.45-18.25-14.15-36.05-23.15-53.65-3.8-7.4-7.95-14.95-12.3-22.4-20.3-34.5-45.8-67.2-76.35-97.75-72.45-72.45-156.75-116.45-252.8-131.9-.3-.05-.6-.1-.85-.15-16.25-2.6-32.8-4.4-50.05-5.35-9.7-.55-19.85-.85-30.1-.85-9.35 0-18.6.25-27.9.75-118.35 6.1-220.3 51.95-305.85 137.5-56.5 56.5-95.65 120.15-117.45 190.7q-20.8 67.2-20.8 143.05c0 130.35 46.1 241.65 138.25 333.8 48.05 48 101.3 83.55 159.1 106.3 6.45 2.6 12.6 4.85 18.8 6.95 40.5 13.85 83.05 21.9 127.95 24.25h.4c8.5.45 16.6.7 24.5.7h3c10.3 0 20.5-.3 30.1-.8 2.5-.15 4.75-.3 6.95-.45 20.2-1.45 39.9-4.05 58.7-7.7 7.95-1.55 15.8-3.3 23.4-5.15 64.7-16.25 123.35-45.95 176.15-89.15 13.25-10.9 26.05-22.5 38.5-34.95 48.6-48.6 84.4-102.5 107.35-161.8 3.95-10.25 7.55-20.65 10.75-31.15 11.7-38.65 18.3-79.4 19.8-122.35.2-6.05.3-12.25.3-18.5 0-.65 0-1.35 0-2 0-.35 0-.65 0-1-.2-40.65-4.95-79.5-14.3-117-1.1-4.35-2.35-9-3.65-13.6-2.25-7.85-4.75-15.8-7.55-23.8z" fill="#19979c"/><path d="m820.25 392.05h-132.2l-176 152-160-148-140 44-28.55 216 328 328h.55q15.25 0 30.1-.8c2.5-.15 4.75-.3 6.95-.45 20.2-1.45 39.9-4.05 58.7-7.7 7.95-1.55 15.8-3.3 23.4-5.15 64.7-16.25 123.35-45.95 176.15-89.15 13.25-10.9 26.05-22.5 38.5-34.95 48.6-48.6 84.4-102.5 107.35-161.8 3.95-10.25 7.55-20.65 10.75-31.15 9.5-31.45 15.65-64.3 18.45-98.7z" fill-opacity=".2"/><path d="m734.7 598.7v-46h-49.85 49.85v-46 46h42.15" fill="none" stroke="#fff" stroke-linecap="round" stroke-linejoin="round" stroke-width="37.29"/><path d="m896.85 531.45c.05-6-.2-11.9-.8-17.5-3.65-42.95-21.25-79.95-52.6-111.3-35.6-35.6-78.55-53.35-128.8-53.4-48.25.05-89.8 16.3-124.45 49.1-.65.6-1.35 1.3-2 1.85l-5.05 5.05c.05.1.05.1-.05.05l-67.55 67.6-72.2-72.05c-34.95-33.7-76.9-50.5-125.9-50.5-50.25 0-93.25 17.75-128.85 53.35-31.15 31.15-48.6 67.9-52.55 110.25-.5 5.7-.7 11.65-.75 17.6 0 .35-.05.6 0 1-.05 50.3 17.8 93.3 53.35 128.85 35.6 35.55 78.5 53.35 128.85 53.35 45.6-.05 85.15-14.6 118.7-43.85 3.45-3 6.8-6.2 10.1-9.5 3.35-3.35 6.5-6.7 9.55-10.2l60.45-60.45 65.2 65.2c1.4 1.45 2.85 2.85 4.3 4.35l2.7 2.7c1.6 1.5 3.15 2.95 4.7 4.4 34.1 30.8 74.6 46.3 121.4 46.3 50.35-.05 93.3-17.8 128.9-53.35 35.55-35.6 53.4-78.55 53.4-128.9zm-82.75 0-.05.05c0 27.45-9.75 50.8-29.15 70.25-19.45 19.4-42.8 29.15-70.25 29.15-27.45-.05-50.8-9.75-70.25-29.15-.5-.5-.95-1-1.45-1.5l-68.8-68.75h.65l62.35-62.3c2.15-2.7 4.65-5.45 7.25-8 19.4-19.45 42.8-29.1 70.25-29.15 27.45 0 50.8 9.7 70.25 29.15 15.15 15.15 24.45 32.75 27.7 52.7 1.05 5.75 1.45 11.55 1.5 17.55zm-496.65-98.3c27.45-.05 50.85 9.65 70.3 29.1 1.3 1.3 2.55 2.65 3.85 4.05l65.3 65.2-83.9 83.75c-16.5 11.25-34.9 16.7-55.5 16.65-27.5.05-50.85-9.65-70.3-29.1-19.4-19.4-29.1-42.75-29.05-70.25l-.05-.05c0-.4.05-.65-.05-1 .15-6 .65-11.9 1.6-17.55 3.45-19.65 12.65-36.85 27.5-51.7 19.45-19.45 42.9-29.1 70.3-29.1z" fill="#fff"/></svg>